<?xml version="1.0" encoding="UTF-8" standalone="no"?>
<!-- Generator: Adobe Illustrator 17.0.1, SVG Export Plug-In . SVG Version: 6.00 Build 0)  -->

<svg
   xmlns:osb="http://www.openswatchbook.org/uri/2009/osb"
   xmlns:dc="http://purl.org/dc/elements/1.1/"
   xmlns:cc="http://creativecommons.org/ns#"
   xmlns:rdf="http://www.w3.org/1999/02/22-rdf-syntax-ns#"
   xmlns:svg="http://www.w3.org/2000/svg"
   xmlns="http://www.w3.org/2000/svg"
   xmlns:xlink="http://www.w3.org/1999/xlink"
   xmlns:sodipodi="http://sodipodi.sourceforge.net/DTD/sodipodi-0.dtd"
   xmlns:inkscape="http://www.inkscape.org/namespaces/inkscape"
   version="1.1"
   x="0px"
   y="0px"
   width="292"
   height="292"
   viewBox="0 0 292 292"
   enable-background="new 0 0 86 86"
   xml:space="preserve"
   id="svg2"
   inkscape:version="0.48.2 r9819"
   sodipodi:docname="ampiaiskala-overlay.svg"><metadata
   id="metadata27"><rdf:RDF><cc:Work
       rdf:about=""><dc:format>image/svg+xml</dc:format><dc:type
         rdf:resource="http://purl.org/dc/dcmitype/StillImage" /><dc:title /></cc:Work></rdf:RDF></metadata><defs
   id="defs25"><linearGradient
     id="linearGradient5614"><stop
       style="stop-color:#bcbca0;stop-opacity:1;"
       offset="0"
       id="stop5616" /><stop
       style="stop-color:#bcbca0;stop-opacity:1;"
       offset="1"
       id="stop5618" /></linearGradient><linearGradient
     id="linearGradient5389"><stop
       style="stop-color:#1b91ff;stop-opacity:0.45299146;"
       offset="0"
       id="stop5391" /><stop
       style="stop-color:#1b91ff;stop-opacity:1;"
       offset="1"
       id="stop5393" /></linearGradient><linearGradient
     id="linearGradient5375"
     osb:paint="solid"><stop
       style="stop-color:#ab9145;stop-opacity:1;"
       offset="0"
       id="stop5377" /></linearGradient><linearGradient
     inkscape:collect="always"
     xlink:href="#linearGradient5389"
     id="linearGradient5395"
     x1="27.923729"
     y1="42.403702"
     x2="73.516251"
     y2="28.92065"
     gradientUnits="userSpaceOnUse"
     gradientTransform="matrix(4.2364839,0,0,4.2364839,-41.090175,-244.86607)" /><linearGradient
     inkscape:collect="always"
     xlink:href="#linearGradient5614"
     id="linearGradient5620"
     x1="15.898305"
     y1="42.08408"
     x2="75.740959"
     y2="42.08408"
     gradientUnits="userSpaceOnUse"
     gradientTransform="matrix(4.2364839,0,0,4.2364839,-53.098148,-232.8581)" /></defs><sodipodi:namedview
   pagecolor="#ffffff"
   bordercolor="#666666"
   borderopacity="1"
   objecttolerance="10"
   gridtolerance="10"
   guidetolerance="10"
   inkscape:pageopacity="0"
   inkscape:pageshadow="2"
   inkscape:window-width="1249"
   inkscape:window-height="717"
   id="namedview23"
   showgrid="false"
   inkscape:zoom="0.97021628"
   inkscape:cx="34.673449"
   inkscape:cy="130.05376"
   inkscape:window-x="0"
   inkscape:window-y="0"
   inkscape:window-maximized="0"
   inkscape:current-layer="layer2" />
<g
   id="Layer_2"
   display="none"
   style="display:none"
   transform="translate(0,206)">
</g>

<g
   inkscape:groupmode="layer"
   id="layer1"
   inkscape:label="1"
   transform="translate(0,206)" /><g
   inkscape:groupmode="layer"
   id="layer2"
   inkscape:label="roll"
   style="display:inline"
   transform="translate(0,206)"><path
     style="fill:#000000;fill-opacity:1;stroke:#000000;stroke-width:4.23648405px;stroke-linecap:butt;stroke-linejoin:miter;stroke-opacity:1"
     d="m 34.556194,-127.53701 116.562596,-67.29744 116.55444,67.29273 0,125.0527944 L 153.24518,63.576143 34.718401,-3.0726961 z"
     id="path3919"
     inkscape:connector-curvature="0"
     sodipodi:nodetypes="ccccccc" /><path
     style="fill:url(#linearGradient5395);fill-opacity:1;stroke:#000000;stroke-width:4.23648405px;stroke-linecap:butt;stroke-linejoin:miter;stroke-opacity:1"
     d="m 79.326496,-22.55837 0,-84.9092 72.778454,-42.01865 74.45438,42.98625 0,82.397795 -74.72318,43.141447 z"
     id="path3921"
     inkscape:connector-curvature="0" /></g><g
   inkscape:groupmode="layer"
   id="layer3"
   inkscape:label="fish"
   style="display:inline"
   transform="translate(0,206)"><path
     style="fill:url(#linearGradient5620);fill-opacity:1;fill-rule:nonzero;stroke:#000000;stroke-width:2.11824203;stroke-linecap:butt;stroke-linejoin:round;stroke-miterlimit:4;stroke-opacity:1;stroke-dasharray:none"
     d="m 16.373006,-190.4035 72.558764,60.98023 21.61325,13.89424 32.41987,0 38.59509,-51.71742 0.7719,13.12233 4.63141,0.7719 0,4.63141 3.85951,3.85951 0,2.31571 6.94711,4.63141 -0.7719,3.0876 4.63141,0 0,6.94712 0,0 7.71902,0 0,4.63141 9.26282,0 -3.85951,3.85951 10.03472,1.5438 2.31571,3.85951 16.98184,3.85951 -8.49092,7.71902 4.63141,3.0876 -6.94712,3.859514 3.08761,3.859509 -1.54381,5.403313 6.17522,2.315704 -5.35739,4.67524 6.5498,0 -2.72909,3.82072 4.91236,2.183267 -3.2749,2.729088 4.91235,2.729084 0,1.637452 3.2749,0.545816 -0.54582,2.729083 4.91236,2.183268 -6.00399,3.82072 12.00797,4.366535 0,2.729084 6.00399,5.458171 -10.91634,0 2.18327,7.095619 -9.27889,-4.366535 -3.82072,2.729083 0.54582,3.274904 -4.36654,0 0,3.2749 -4.36653,1.091636 -2.72909,6.549803 0.54582,7.095619 -8.73307,-4.912351 -14.73706,4.366535 0.54582,15.2828746 -1.63746,19.6494094 -8.73307,11.462155 -12.55379,10.370523 -20.74104,3.820719 -18.01196,5.458168 -27.29085,16.37451 -38.752999,16.920326 36.569739,-20.741046 21.83267,-14.191238 2.18327,-9.278891 -14.19124,-13.645423 -20.19523,-9.824706 16.37451,4.912355 14.73706,9.824703 10.37052,6.003987 12.55379,-7.641439 6.00399,-12.00797 0,-11.462155 -12.55379,-14.737059 -30.01993,-29.474116 -4.36654,-2.183268 -14.73706,13.099606 -6.5498,12.553791 1.63745,-11.462155 14.19124,-22.378497 -24.015946,-28.928297 -10.916339,-14.191242 -13.099606,-8.187256 -16.920322,-4.36653 15.282874,-1.63746 23.470125,3.82072 1.637452,-4.91235 -6.549803,-16.92032 -18.011958,-17.46615 z"
     id="path5484"
     inkscape:connector-curvature="0" /><path
     style="fill:none;stroke:#000000;stroke-width:2.11824203;stroke-linecap:butt;stroke-linejoin:round;stroke-miterlimit:4;stroke-opacity:1;stroke-dasharray:none"
     d="m 145.0334,-114.68392 27.83667,22.924314 18.01196,20.741041 15.28287,33.294836 4.36654,21.832678 0,0 0,0 0,0"
     id="path5518"
     inkscape:connector-curvature="0" /><path
     style="fill:none;stroke:#000000;stroke-width:2.11824203;stroke-linecap:butt;stroke-linejoin:round;stroke-miterlimit:4;stroke-opacity:1;stroke-dasharray:none"
     d="m 113.37602,-114.13811 13.09961,8.73307 18.01195,2.72909 19.64942,17.466147 16.3745,16.374506 13.09961,25.107581 11.46216,20.195226 4.36654,8.733071"
     id="path5520"
     inkscape:connector-curvature="0" /><path
     style="fill:none;stroke:#000000;stroke-width:2.11824203;stroke-linecap:butt;stroke-linejoin:round;stroke-miterlimit:4;stroke-opacity:1;stroke-dasharray:none"
     d="m 159.22464,-103.22177 0,13.645431 1.63745,1.091632"
     id="path5522"
     inkscape:connector-curvature="0" /><path
     style="fill:none;stroke:#000000;stroke-width:2.11824203;stroke-linecap:butt;stroke-linejoin:round;stroke-miterlimit:4;stroke-opacity:1;stroke-dasharray:none"
     d="m 170.6868,-92.305427 -1.09163,13.099607"
     id="path5526"
     inkscape:connector-curvature="0" /><path
     style="fill:none;stroke:#000000;stroke-width:2.11824203;stroke-linecap:butt;stroke-linejoin:round;stroke-miterlimit:4;stroke-opacity:1;stroke-dasharray:none"
     d="m 182.69477,-79.20582 -2.72908,8.733075"
     id="path5528"
     inkscape:connector-curvature="0" /><path
     style="fill:none;stroke:#000000;stroke-width:2.11824203;stroke-linecap:butt;stroke-linejoin:round;stroke-miterlimit:4;stroke-opacity:1;stroke-dasharray:none"
     d="m 189.79039,-69.926929 -2.18327,13.099607"
     id="path5530"
     inkscape:connector-curvature="0" /><path
     style="fill:none;stroke:#000000;stroke-width:2.11824203;stroke-linecap:butt;stroke-linejoin:round;stroke-miterlimit:4;stroke-opacity:1;stroke-dasharray:none"
     d="m 197.97765,-53.552423 -3.2749,8.733071"
     id="path5532"
     inkscape:connector-curvature="0" /><path
     style="fill:none;stroke:#000000;stroke-width:2.11824203;stroke-linecap:butt;stroke-linejoin:round;stroke-miterlimit:4;stroke-opacity:1;stroke-dasharray:none"
     d="M 205.07327,-38.269549 202.89,-28.990658"
     id="path5534"
     inkscape:connector-curvature="0" /><path
     style="fill:none;stroke:#000000;stroke-width:2.11824203;stroke-linecap:butt;stroke-linejoin:round;stroke-miterlimit:4;stroke-opacity:1;stroke-dasharray:none"
     d="m 142.30432,-63.377126 36.56973,56.7649621 0,0 0,0 0,0 0,0 0,0"
     id="path5536"
     inkscape:connector-curvature="0" /><path
     style="fill:none;stroke:#000000;stroke-width:2.11824203;stroke-linecap:butt;stroke-linejoin:round;stroke-miterlimit:4;stroke-opacity:1;stroke-dasharray:none"
     d="m 148.85412,-95.580326 -2.72908,16.374506 -9.27889,8.187255 -10.37052,1.637452 -6.00399,-4.366536 -6.5498,-9.278886 -4.91236,-6.003988"
     id="path5538"
     inkscape:connector-curvature="0" /><path
     style="fill:none;stroke:#000000;stroke-width:2.11824203;stroke-linecap:butt;stroke-linejoin:round;stroke-miterlimit:4;stroke-opacity:1;stroke-dasharray:none"
     d="m 122.65491,-70.472745 -3.2749,8.187251 -9.27889,4.366536"
     id="path5540"
     inkscape:connector-curvature="0" /><path
     style="fill:none;stroke:#000000;stroke-width:2.11824203;stroke-linecap:butt;stroke-linejoin:round;stroke-miterlimit:4;stroke-opacity:1;stroke-dasharray:none"
     d="M 108.46367,-89.576339 85.539355,-93.942874"
     id="path5542"
     inkscape:connector-curvature="0" /><path
     style="fill:none;stroke:#000000;stroke-width:2.11824203;stroke-linecap:butt;stroke-linejoin:round;stroke-miterlimit:4;stroke-opacity:1;stroke-dasharray:none"
     d="m 91.543342,-103.22177 16.374508,4.91236 -11.462156,-19.64941 -11.462155,-8.73307"
     id="path5544"
     inkscape:connector-curvature="0" /><path
     style="fill:none;stroke:#000000;stroke-width:2.11824203;stroke-linecap:butt;stroke-linejoin:round;stroke-miterlimit:4;stroke-opacity:1;stroke-dasharray:none"
     d="m 130.84216,-98.85523 -0.54581,8.187255 -5.45818,4.366536"
     id="path5546"
     inkscape:connector-curvature="0" /><path
     style="fill:none;stroke:#000000;stroke-width:2.11824203;stroke-linecap:butt;stroke-linejoin:round;stroke-miterlimit:4;stroke-opacity:1;stroke-dasharray:none"
     d="m 109.5553,-109.77157 1.63745,1.09163"
     id="path5548"
     inkscape:connector-curvature="0" /><path
     style="fill:none;stroke:#000000;stroke-width:2.11824203;stroke-linecap:butt;stroke-linejoin:round;stroke-miterlimit:4;stroke-opacity:1;stroke-dasharray:none"
     d="m 116.1051,-51.914971 9.82471,11.462155"
     id="path5550"
     inkscape:connector-curvature="0" /></g><g
   inkscape:groupmode="layer"
   id="layer4"
   inkscape:label="roll-fill"
   transform="translate(0,206)"><path
     style="fill:#000000;fill-opacity:1;stroke:#000000;stroke-width:4.23648405px;stroke-linecap:butt;stroke-linejoin:miter;stroke-opacity:1"
     d="m 151.88526,18.352423 76.41827,-43.226498 7.71902,-4.631409 12.35042,11.578527 19.29755,13.8942313 L 153.69602,65.542575 35.861379,-3.8262607 80.098396,-23.33027 z"
     id="path5623"
     inkscape:connector-curvature="0"
     sodipodi:nodetypes="ccccccccc" /></g></svg>